{
  "accessors": [
    {
      "bufferView": 2,
      "componentType": 5126,
      "count": 65532,
      "max": [
        0.5908628702163696,
        0.9298986792564392,
        0.5731313228607178
      ],
      "min": [
        -0.4933900833129883,
        -0.5009254813194275,
        -0.5588491559028625
      ],
      "type": "VEC3"
    },
    {
      "bufferView": 2,
      "byteOffset": 786384,
      "componentType": 5126,
      "count": 65532,
      "max": [
        0.9999979734420776,
        0.9999876022338867,
        0.9998574256896973
      ],
      "min": [
        -0.9999815225601196,
        -0.9994903206825256,
        -0.9999662637710571
      ],
      "type": "VEC3"
    },
    {
      "bufferView": 1,
      "componentType": 5126,
      "count": 65532,
      "max": [
        1.0070267915725708,
        1.1208468675613403
      ],
      "min": [
        0.011874228715896606,
        -0.29711484909057617
      ],
      "type": "VEC2"
    },
    {
      "bufferView": 1,
      "byteOffset": 524256,
      "componentType": 5126,
      "count": 65532,
      "max": [
        1.0070267915725708,
        1.1208468675613403
      ],
      "min": [
        0.011874228715896606,
        -0.29711484909057617
      ],
      "type": "VEC2"
    },
    {
      "bufferView": 1,
      "byteOffset": 1048512,
      "componentType": 5126,
      "count": 65532,
      "max": [
        1.0070267915725708,
        1.1208468675613403
      ],
      "min": [
        0.011874228715896606,
        -0.29711484909057617
      ],
      "type": "VEC2"
    },
    {
      "bufferView": 1,
      "byteOffset": 1572768,
      "componentType": 5126,
      "count": 65532,
      "max": [
        1.0070267915725708,
        1.1208468675613403
      ],
      "min": [
        0.011874228715896606,
        -0.29711484909057617
      ],
      "type": "VEC2"
    },
    {
      "bufferView": 1,
      "byteOffset": 2097024,
      "componentType": 5126,
      "count": 65532,
      "max": [
        1.0070267915725708,
        1.1208468675613403
      ],
      "min": [
        0.011874228715896606,
        -0.29711484909057617
      ],
      "type": "VEC2"
    },
    {
      "bufferView": 0,
      "componentType": 5125,
      "count": 330483,
      "type": "SCALAR"
    },
    {
      "bufferView": 2,
      "byteOffset": 1572768,
      "componentType": 5126,
      "count": 65532,
      "max": [
        0.5938065052032471,
        0.9451321363449097,
        0.49253061413764954
      ],
      "min": [
        -0.460049569606781,
        -0.8867583274841309,
        -0.5568938255310059
      ],
      "type": "VEC3"
    },
    {
      "bufferView": 2,
      "byteOffset": 2359152,
      "componentType": 5126,
      "count": 65532,
      "max": [
        0.9999831914901733,
        0.9999876022338867,
        0.9999818801879883
      ],
      "min": [
        -0.9993661642074585,
        -0.9999926090240479,
        -0.9999662637710571
      ],
      "type": "VEC3"
    },
    {
      "bufferView": 1,
      "byteOffset": 2621280,
      "componentType": 5126,
      "count": 65532,
      "max": [
        1.0749412775039673,
        1.506679654121399
      ],
      "min": [
        0.04702425003051758,
        -0.3200274705886841
      ],
      "type": "VEC2"
    },
    {
      "bufferView": 1,
      "byteOffset": 3145536,
      "componentType": 5126,
      "count": 65532,
      "max": [
        1.0749412775039673,
        1.506679654121399
      ],
      "min": [
        0.04702425003051758,
        -0.3200274705886841
      ],
      "type": "VEC2"
    },
    {
      "bufferView": 1,
      "byteOffset": 3669792,
      "componentType": 5126,
      "count": 65532,
      "max": [
        1.0749412775039673,
        1.506679654121399
      ],
      "min": [
        0.04702425003051758,
        -0.3200274705886841
      ],
      "type": "VEC2"
    },
    {
      "bufferView": 1,
      "byteOffset": 4194048,
      "componentType": 5126,
      "count": 65532,
      "max": [
        1.0749412775039673,
        1.506679654121399
      ],
      "min": [
        0.04702425003051758,
        -0.3200274705886841
      ],
      "type": "VEC2"
    },
    {
      "bufferView": 1,
      "byteOffset": 4718304,
      "componentType": 5126,
      "count": 65532,
      "max": [
        1.0749412775039673,
        1.506679654121399
      ],
      "min": [
        0.04702425003051758,
        -0.3200274705886841
      ],
      "type": "VEC2"
    },
    {
      "bufferView": 0,
      "byteOffset": 1321932,
      "componentType": 5125,
      "count": 316731,
      "type": "SCALAR"
    },
    {
      "bufferView": 2,
      "byteOffset": 3145536,
      "componentType": 5126,
      "count": 65532,
      "max": [
        0.5711359977722168,
        0.9511944055557251,
        0.580426812171936
      ],
      "min": [
        -0.5957911610603333,
        -0.9517214894294739,
        -0.5625795125961304
      ],
      "type": "VEC3"
    },
    {
      "bufferView": 2,
      "byteOffset": 3931920,
      "componentType": 5126,
      "count": 65532,
      "max": [
        0.9999483823776245,
        0.9985788464546204,
        0.9999728202819824
      ],
      "min": [
        -0.9998319745063782,
        -0.9999699592590332,
        -0.9998575448989868
      ],
      "type": "VEC3"
    },
    {
      "bufferView": 1,
      "byteOffset": 5242560,
      "componentType": 5126,
      "count": 65532,
      "max": [
        1.0433372259140015,
        1.5543357133865356
      ],
      "min": [
        -0.08820682764053345,
        -0.3248797655105591
      ],
      "type": "VEC2"
    },
    {
      "bufferView": 1,
      "byteOffset": 5766816,
      "componentType": 5126,
      "count": 65532,
      "max": [
        1.0433372259140015,
        1.5543357133865356
      ],
      "min": [
        -0.08820682764053345,
        -0.3248797655105591
      ],
      "type": "VEC2"
    },
    {
      "bufferView": 1,
      "byteOffset": 6291072,
      "componentType": 5126,
      "count": 65532,
      "max": [
        1.0433372259140015,
        1.5543357133865356
      ],
      "min": [
        -0.08820682764053345,
        -0.3248797655105591
      ],
      "type": "VEC2"
    },
    {
      "bufferView": 1,
      "byteOffset": 6815328,
      "componentType": 5126,
      "count": 65532,
      "max": [
        1.0433372259140015,
        1.5543357133865356
      ],
      "min": [
        -0.08820682764053345,
        -0.3248797655105591
      ],
      "type": "VEC2"
    },
    {
      "bufferView": 1,
      "byteOffset": 7339584,
      "componentType": 5126,
      "count": 65532,
      "max": [
        1.0433372259140015,
        1.5543357133865356
      ],
      "min": [
        -0.08820682764053345,
        -0.3248797655105591
      ],
      "type": "VEC2"
    },
    {
      "bufferView": 0,
      "byteOffset": 2588856,
      "componentType": 5125,
      "count": 308277,
      "type": "SCALAR"
    },
    {
      "bufferView": 2,
      "byteOffset": 4718304,
      "componentType": 5126,
      "count": 14404,
      "max": [
        0.49881139397621155,
        0.940801203250885,
        0.46386078000068665
      ],
      "min": [
        -0.5956063270568848,
        -0.9517295360565186,
        -0.5625795125961304
      ],
      "type": "VEC3"
    },
    {
      "bufferView": 2,
      "byteOffset": 4891152,
      "componentType": 5126,
      "count": 14404,
      "max": [
        0.9990267753601074,
        0.9191642999649048,
        0.9999728202819824
      ],
      "min": [
        -0.9997465014457703,
        -0.9997710585594177,
        -0.9983503222465515
      ],
      "type": "VEC3"
    },
    {
      "bufferView": 1,
      "byteOffset": 7863840,
      "componentType": 5126,
      "count": 14404,
      "max": [
        1.0105823278427124,
        1.5554202795028687
      ],
      "min": [
        -0.07707428932189941,
        -0.32087981700897217
      ],
      "type": "VEC2"
    },
    {
      "bufferView": 1,
      "byteOffset": 7979072,
      "componentType": 5126,
      "count": 14404,
      "max": [
        1.0105823278427124,
        1.5554202795028687
      ],
      "min": [
        -0.07707428932189941,
        -0.32087981700897217
      ],
      "type": "VEC2"
    },
    {
      "bufferView": 1,
      "byteOffset": 8094304,
      "componentType": 5126,
      "count": 14404,
      "max": [
        1.0105823278427124,
        1.5554202795028687
      ],
      "min": [
        -0.07707428932189941,
        -0.32087981700897217
      ],
      "type": "VEC2"
    },
    {
      "bufferView": 1,
      "byteOffset": 8209536,
      "componentType": 5126,
      "count": 14404,
      "max": [
        1.0105823278427124,
        1.5554202795028687
      ],
      "min": [
        -0.07707428932189941,
        -0.32087981700897217
      ],
      "type": "VEC2"
    },
    {
      "bufferView": 1,
      "byteOffset": 8324768,
      "componentType": 5126,
      "count": 14404,
      "max": [
        1.0105823278427124,
        1.5554202795028687
      ],
      "min": [
        -0.07707428932189941,
        -0.32087981700897217
      ],
      "type": "VEC2"
    },
    {
      "bufferView": 0,
      "byteOffset": 3821964,
      "componentType": 5125,
      "count": 64263,
      "type": "SCALAR"
    }
  ],
  "asset": {
    "extras": {
      "author": "lovadahn (https://sketchfab.com/lovadahn)",
      "license": "CC-BY-4.0 (http://creativecommons.org/licenses/by/4.0/)",
      "source": "https://sketchfab.com/3d-models/apollo-greek-god-statue-6867e287acc8476ba348ac0d53a87099",
      "title": "Apollo - Greek God Statue"
    },
    "generator": "Sketchfab-16.95.0",
    "version": "2.0"
  },
  "bufferViews": [
    {
      "buffer": 0,
      "byteLength": 4079016,
      "name": "floatBufferViews",
      "target": 34963
    },
    {
      "buffer": 0,
      "byteLength": 8440000,
      "byteOffset": 4079016,
      "byteStride": 8,
      "name": "floatBufferViews",
      "target": 34962
    },
    {
      "buffer": 0,
      "byteLength": 5064000,
      "byteOffset": 12519016,
      "byteStride": 12,
      "name": "floatBufferViews",
      "target": 34962
    }
  ],
  "buffers": [
    {
      "byteLength": 17583016,
      "uri": "scene.bin"
    }
  ],
  "extensionsUsed": [
    "KHR_materials_clearcoat",
    "KHR_materials_specular"
  ],
  "images": [
    {
      "uri": "textures/White_painted_metal_baseColor.jpeg"
    },
    {
      "uri": "textures/White_painted_metal_metallicRoughness.png"
    },
    {
      "uri": "textures/White_painted_metal_specularf0.png"
    }
  ],
  "materials": [
    {
      "doubleSided": true,
      "extensions": {
        "KHR_materials_clearcoat": {
          "clearcoatFactor": 0.10819080591483707,
          "clearcoatRoughnessFactor": 0.0
        },
        "KHR_materials_specular": {
          "specularColorFactor": [
            1.0,
            1.0,
            1.0
          ],
          "specularFactor": 1.0,
          "specularTexture": {
            "index": 2,
            "texCoord": 2
          }
        }
      },
      "name": "White_painted_metal",
      "pbrMetallicRoughness": {
        "baseColorTexture": {
          "index": 0
        },
        "metallicRoughnessTexture": {
          "index": 1,
          "texCoord": 1
        },
        "roughnessFactor": 0.364191586107691
      }
    }
  ],
  "meshes": [
    {
      "name": "Object_0",
      "primitives": [
        {
          "attributes": {
            "NORMAL": 1,
            "POSITION": 0,
            "TEXCOORD_0": 2,
            "TEXCOORD_1": 3,
            "TEXCOORD_2": 4,
            "TEXCOORD_3": 5,
            "TEXCOORD_4": 6
          },
          "indices": 7,
          "material": 0,
          "mode": 4
        }
      ]
    },
    {
      "name": "Object_1",
      "primitives": [
        {
          "attributes": {
            "NORMAL": 9,
            "POSITION": 8,
            "TEXCOORD_0": 10,
            "TEXCOORD_1": 11,
            "TEXCOORD_2": 12,
            "TEXCOORD_3": 13,
            "TEXCOORD_4": 14
          },
          "indices": 15,
          "material": 0,
          "mode": 4
        }
      ]
    },
    {
      "name": "Object_2",
      "primitives": [
        {
          "attributes": {
            "NORMAL": 17,
            "POSITION": 16,
            "TEXCOORD_0": 18,
            "TEXCOORD_1": 19,
            "TEXCOORD_2": 20,
            "TEXCOORD_3": 21,
            "TEXCOORD_4": 22
          },
          "indices": 23,
          "material": 0,
          "mode": 4
        }
      ]
    },
    {
      "name": "Object_3",
      "primitives": [
        {
          "attributes": {
            "NORMAL": 25,
            "POSITION": 24,
            "TEXCOORD_0": 26,
            "TEXCOORD_1": 27,
            "TEXCOORD_2": 28,
            "TEXCOORD_3": 29,
            "TEXCOORD_4": 30
          },
          "indices": 31,
          "material": 0,
          "mode": 4
        }
      ]
    }
  ],
  "nodes": [
    {
      "children": [
        1
      ],
      "matrix": [
        1.0,
        0.0,
        0.0,
        0.0,
        0.0,
        2.220446049250313e-16,
        -1.0,
        0.0,
        0.0,
        1.0,
        2.220446049250313e-16,
        0.0,
        0.0,
        0.0,
        0.0,
        1.0
      ],
      "name": "Sketchfab_model"
    },
    {
      "children": [
        2
      ],
      "name": "root"
    },
    {
      "children": [
        3
      ],
      "matrix": [
        1.0,
        0.0,
        0.0,
        0.0,
        0.0,
        2.220446049250313e-16,
        1.0,
        0.0,
        0.0,
        -1.0,
        2.220446049250313e-16,
        0.0,
        0.0,
        0.0,
        0.0,
        1.0
      ],
      "name": "GLTF_SceneRootNode"
    },
    {
      "children": [
        4,
        5,
        6,
        7
      ],
      "matrix": [
        0.5,
        0.0,
        0.0,
        0.0,
        0.0,
        0.5,
        0.0,
        0.0,
        0.0,
        0.0,
        0.5,
        0.0,
        0.0,
        0.5,
        0.0,
        1.0
      ],
      "name": "Retopo_Mesh1.0_0"
    },
    {
      "mesh": 0,
      "name": "Object_4"
    },
    {
      "mesh": 1,
      "name": "Object_5"
    },
    {
      "mesh": 2,
      "name": "Object_6"
    },
    {
      "mesh": 3,
      "name": "Object_7"
    }
  ],
  "samplers": [
    {
      "magFilter": 9729,
      "minFilter": 9987,
      "wrapS": 10497,
      "wrapT": 10497
    }
  ],
  "scene": 0,
  "scenes": [
    {
      "name": "Sketchfab_Scene",
      "nodes": [
        0
      ]
    }
  ],
  "textures": [
    {
      "sampler": 0,
      "source": 0
    },
    {
      "sampler": 0,
      "source": 1
    },
    {
      "sampler": 0,
      "source": 2
    }
  ]
}
